HIERARCHY
ROOT RootJoint
{
    OFFSET   0.000000   0.000000   0.000000
    CHANNELS 6 Xposition Yposition Zposition Xrotation Yrotation Zrotation
    JOINT pelvis_lowerback
    {
        OFFSET   0.000000   0.093605   0.000000
        CHANNELS 3 Xrotation Yrotation Zrotation
        JOINT lowerback_torso
        {
            OFFSET   0.000000   0.100000   0.000000
            CHANNELS 3 Xrotation Yrotation Zrotation
            JOINT torso_head
            {
                OFFSET   0.000000   0.282350   0.000000
                CHANNELS 3 Xrotation Yrotation Zrotation
                End Site
                {
                    OFFSET   0.000000   0.192650   0.000000
                }
            }
            JOINT rTorso_Clavicle
            {
                OFFSET  -0.001000   0.157500   0.000000
                CHANNELS 3 Xrotation Yrotation Zrotation
                JOINT rShoulder
                {
                    OFFSET  -0.117647   0.000000   0.000000
                    CHANNELS 3 Xrotation Yrotation Zrotation
                    JOINT rElbow
                    {
                        OFFSET  -0.245000   0.000000   0.000000
                        CHANNELS 3 Xrotation Yrotation Zrotation
                        JOINT rWrist
                        {
                            OFFSET  -0.240000   0.000000   0.000000
                            CHANNELS 3 Xrotation Yrotation Zrotation
                            End Site
                            {
                                OFFSET  -0.116353  -0.002500   0.000000
                            }
                        }
                    }
                }
            }
            JOINT lTorso_Clavicle
            {
                OFFSET   0.001000   0.157500   0.000000
                CHANNELS 3 Xrotation Yrotation Zrotation
                JOINT lShoulder
                {
                    OFFSET   0.117647   0.000000   0.000000
                    CHANNELS 3 Xrotation Yrotation Zrotation
                    JOINT lElbow
                    {
                        OFFSET   0.245000   0.000000   0.000000
                        CHANNELS 3 Xrotation Yrotation Zrotation
                        JOINT lWrist
                        {
                            OFFSET   0.240000   0.000000   0.000000
                            CHANNELS 3 Xrotation Yrotation Zrotation
                            End Site
                            {
                                OFFSET   0.116353  -0.002500   0.000000
                            }
                        }
                    }
                }
            }
        }
    }
    JOINT rHip
    {
        OFFSET  -0.100000  -0.051395   0.000000
        CHANNELS 3 Xrotation Yrotation Zrotation
        JOINT rKnee
        {
            OFFSET   0.000000  -0.410000   0.000000
            CHANNELS 3 Xrotation Yrotation Zrotation
            JOINT rAnkle
            {
                OFFSET   0.000000  -0.390000   0.000000
                CHANNELS 3 Xrotation Yrotation Zrotation
                JOINT rToeJoint
                {
                    OFFSET   0.000000  -0.050000   0.130000
                    CHANNELS 3 Xrotation Yrotation Zrotation
                    End Site
                    {
                        OFFSET  -0.010000   0.002000   0.060000
                    }
                }
            }
        }
    }
    JOINT lHip
    {
        OFFSET   0.100000  -0.051395   0.000000
        CHANNELS 3 Xrotation Yrotation Zrotation
        JOINT lKnee
        {
            OFFSET   0.000000  -0.410000   0.000000
            CHANNELS 3 Xrotation Yrotation Zrotation
            JOINT lAnkle
            {
                OFFSET   0.000000  -0.390000   0.000000
                CHANNELS 3 Xrotation Yrotation Zrotation
                JOINT lToeJoint
                {
                    OFFSET   0.000000  -0.050000   0.130000
                    CHANNELS 3 Xrotation Yrotation Zrotation
                    End Site
                    {
                        OFFSET   0.010000   0.002000   0.060000
                    }
                }
            }
        }
    }
}
MOTION
Frames: 10
Frame Time:   0.008333
 -3.400615   0.470407   3.825317  95.073365 -39.378007 115.223093  33.004937  -8.127681   0.222017  -6.133360  -6.760390   0.725372 -18.774607  -5.810010  -4.238238  -6.079912  34.320422  -3.517337 -25.170173  29.704707  19.497357   0.000371  12.524908  -0.000245   3.747972   6.772781 -40.499644  -7.336914 -43.018976  -1.268122  -5.745024 -26.832792 -14.809911   0.000119 -24.331714   0.000217   0.421695  10.035054  82.626378 -35.626571  -2.588086 -19.941704  99.696882  -0.000248  -0.001938  -1.122064   0.351001   6.658490  -4.246145   0.001122  -0.002564 -26.740821 -10.056994  -8.487843  74.754916   0.000455  -0.001136   6.506411  -6.151764   1.772704   1.494435   0.006214  -0.004807
 -3.399902   0.471677   3.823313  94.756454 -39.159555 115.148174  32.974260  -8.095166   0.286394  -5.888521  -6.821392   0.761478 -18.724869  -5.520590  -4.197914  -6.148970  34.621358  -3.463331 -24.629396  29.845784  19.212432  -0.000670  12.371630   0.000599   3.216217   6.684976 -43.445063  -7.582857 -42.809179  -1.024497  -5.843464 -26.905247 -14.611650   0.000138 -24.306990   0.000144   0.278702  10.054893  82.438303 -36.312531  -2.670187 -19.808671  99.912650  -0.000428  -0.000885  -1.113816   0.515042   6.809079  -4.370495   0.001243  -0.002594 -26.867103 -10.204399  -8.511886  74.323221   0.000695  -0.001257   6.417059  -6.088517   1.999462   0.896126   0.006737  -0.004743
 -3.399037   0.472946   3.821215  94.455147 -38.958666 115.081802  32.995737  -8.052807   0.363873  -5.635544  -6.858776   0.808390 -18.662607  -5.249062  -4.164721  -6.222623  34.932248  -3.386463 -24.146668  29.994779  18.978342  -0.001416  12.244784   0.001067   1.771407   6.966037 -46.256870  -7.861678 -42.614754  -0.765320  -5.944507 -26.965172 -14.369917   0.000182 -24.273657   0.000067   0.106028  10.080967  82.203141 -37.010543  -2.762864 -19.656978 100.206292  -0.000694   0.000256  -1.105127   0.671955   6.951329  -4.490368   0.001340  -0.002606 -26.976006 -10.361422  -8.528454  73.887539   0.000941  -0.001357   6.323859  -6.018745   2.214586   0.263101   0.007278  -0.004773
 -3.398011   0.474263   3.819001  94.146570 -38.801288 115.023455  33.032962  -7.996047   0.444163  -5.369262  -6.872210   0.856877 -18.583024  -4.998413  -4.136185  -6.289911  35.213452  -3.320987 -23.672706  30.104402  18.721813  -0.002165  12.090584   0.001530   1.187294   6.673456 -49.257740  -8.102825 -42.396148  -0.523670  -6.044569 -27.063682 -14.190226   0.000030 -24.364088   0.000195  -0.110947   9.788497  82.068231 -37.675801  -2.863650 -19.514625 100.511723  -0.000896   0.001252  -1.096484   0.819332   7.084678  -4.600841   0.001377  -0.002579 -27.069843 -10.516203  -8.546638  73.458386   0.001104  -0.001528   6.235522  -5.950589   2.416297  -0.300284   0.007399  -0.004789
 -3.396833   0.475587   3.816682  93.829491 -38.670084 114.972317  33.088490  -7.944841   0.524882  -5.107967  -6.890177   0.903676 -18.509634  -4.762605  -4.104408  -6.352016  35.468302  -3.260366 -23.225437  30.201976  18.479682  -0.002689  11.944250   0.001829   0.635299   6.409792 -52.080916  -8.341953 -42.201475  -0.309511  -6.142095 -27.147631 -14.010977  -0.000049 -24.430525   0.000256  -0.317123   9.474670  81.950565 -38.310132  -2.961813 -19.381129 100.808915  -0.001004   0.002049  -1.088676   0.957269   7.209381  -4.703508   0.001364  -0.002526 -27.164361 -10.660983  -8.563644  73.042516   0.001192  -0.001745   6.151856  -5.886201   2.604788  -0.802036   0.007222  -0.004783
 -3.395514   0.476883   3.814264  93.507432 -38.558141 114.929948  33.155335  -7.901176   0.604407  -4.855102  -6.912341   0.948859 -18.441388  -4.542174  -4.073611  -6.407013  35.699323  -3.202086 -22.803082  30.288218  18.253844  -0.003038  11.805813   0.002000   0.119908   6.177038 -54.752859  -8.574038 -42.021050  -0.110786  -6.233823 -27.216758 -13.832920  -0.000086 -24.479098   0.000279  -0.521732   9.141011  81.844755 -38.908817  -3.054673 -19.256282 101.090619  -0.001031   0.002646  -1.081855   1.086149   7.325840  -4.799211   0.001316  -0.002450 -27.261728 -10.794570  -8.579144  72.642521   0.001229  -0.001979   6.072238  -5.825998   2.780793  -1.260245   0.006890  -0.004762
 -3.394061   0.478125   3.811757  93.183932 -38.461081 114.897910  33.228496  -7.863702   0.681425  -4.612331  -6.937026   0.992384 -18.377684  -4.336385  -4.044502  -6.454698  35.907404  -3.145190 -22.404007  30.362936  18.043872  -0.003252  11.674409   0.002075  -0.365297   5.972000 -57.289447  -8.797596 -41.850601   0.075197  -6.319485 -27.272337 -13.657476  -0.000099 -24.513835   0.000277  -0.726406   8.789417  81.747864 -39.469221  -3.142008 -19.139788 101.355213  -0.001004   0.003070  -1.075928   1.206466   7.434525  -4.888190   0.001245  -0.002356 -27.362358 -10.917256  -8.593479  72.259939   0.001236  -0.002202   5.996028  -5.769823   2.945154  -1.691536   0.006500  -0.004742
 -3.392559   0.479235   3.809253  93.192264 -38.418691 115.049718  33.520391  -7.735880   0.777435  -4.398659  -6.967207   0.937732 -18.352814  -4.012859  -3.950898  -6.556121  36.343669  -3.015845 -21.790591  30.425330  17.683625  -0.004459  11.404084   0.003002  -1.032012   5.878248 -60.081286  -9.069239 -41.646551   0.368020  -6.491746 -27.145266 -13.441931  -0.000170 -24.550022   0.000254  -0.907337   8.365386  81.477018 -40.003323  -3.165227 -18.858796 101.842019  -0.001630   0.004399  -0.931633   1.497717   7.586003  -4.969937   0.001304  -0.002364 -27.145502 -10.922969  -8.508340  71.770203   0.001425  -0.002311   5.829058  -5.661295   3.197031  -2.544180   0.008104  -0.005601
 -3.391016   0.480179   3.806810  93.258347 -38.358471 115.242075  33.817150  -7.595781   0.880137  -4.192660  -6.967364   0.886679 -18.326066  -3.709575  -3.866700  -6.644928  36.766225  -2.883105 -21.213524  30.480934  17.354118  -0.005386  11.145083   0.003532  -1.688096   5.784575 -62.914267  -9.365708 -41.430956   0.670293  -6.658852 -27.000006 -13.187812  -0.000193 -24.568528   0.000226  -1.148695   7.900676  81.144553 -40.557157  -3.222268 -18.567446 102.386184  -0.002569   0.005703  -0.795187   1.774571   7.728818  -5.043158   0.001362  -0.002303 -26.899144 -10.937493  -8.430826  71.264980   0.001765  -0.002214   5.652274  -5.551243   3.436074  -3.574430   0.010294  -0.006220
 -3.389449   0.480945   3.804444  93.348532 -38.280498 115.459134  34.097333  -7.445675   0.986396  -3.999999  -6.948461   0.849422 -18.295986  -3.427171  -3.788862  -6.722846  37.158368  -2.749829 -20.669305  30.525907  17.050962  -0.006019  10.899589   0.003730  -2.300746   5.701678 -65.713677  -9.663957 -41.209628   0.967572  -6.817765 -26.849863 -12.925045  -0.000194 -24.581155   0.000202  -1.443469   7.414637  80.794614 -41.094231  -3.299767 -18.290478 102.925768  -0.003462   0.006668  -0.668065   2.034735   7.862490  -5.112899   0.001407  -0.002212 -26.656490 -10.951759  -8.372106  70.764666   0.002108  -0.002000   5.483545  -5.452652   3.658969  -4.512748   0.011739  -0.006147
